<?xml version="1.0" encoding="UTF-8" standalone="no"?>
<!DOCTYPE svg PUBLIC "-//W3C//DTD SVG 1.1//EN"
 "http://www.w3.org/Graphics/SVG/1.1/DTD/svg11.dtd">
<!-- Generated by graphviz version 3.0.0 (0)
 -->
<!-- Title: aws_download_firms_dag Pages: 1 -->
<svg width="593pt" height="122pt"
 viewBox="0.00 0.00 593.00 122.00" xmlns="http://www.w3.org/2000/svg" xmlns:xlink="http://www.w3.org/1999/xlink">
<g id="graph0" class="graph" transform="scale(1 1) rotate(0) translate(4 118)">
<title>aws_download_firms_dag</title>
<polygon fill="white" stroke="transparent" points="-4,4 -4,-118 589,-118 589,4 -4,4"/>
<text text-anchor="middle" x="292.5" y="-98.8" font-family="Times,serif" font-size="14.00">aws_download_firms_dag</text>
<g id="clust1" class="cluster">
<title>cluster_load_firms_data</title>
<polygon fill="#6495ed" fill-opacity="0.498039" stroke="#000000" points="134,-8 134,-83 462,-83 462,-8 134,-8"/>
<text text-anchor="middle" x="298" y="-67.8" font-family="Times,serif" font-size="14.00">load_firms_data</text>
</g>
<!-- begin_execution -->
<g id="node1" class="node">
<title>begin_execution</title>
<path fill="#e8f7e4" stroke="#000000" d="M94,-52C94,-52 12,-52 12,-52 6,-52 0,-46 0,-40 0,-40 0,-28 0,-28 0,-22 6,-16 12,-16 12,-16 94,-16 94,-16 100,-16 106,-22 106,-28 106,-28 106,-40 106,-40 106,-46 100,-52 94,-52"/>
<text text-anchor="middle" x="53" y="-30.3" font-family="Times,serif" font-size="14.00">begin_execution</text>
</g>
<!-- load_firms_data.upstream_join_id -->
<g id="node3" class="node">
<title>load_firms_data.upstream_join_id</title>
<ellipse fill="CornflowerBlue" stroke="#000000" cx="149" cy="-34" rx="7" ry="7"/>
</g>
<!-- begin_execution&#45;&gt;load_firms_data.upstream_join_id -->
<g id="edge1" class="edge">
<title>begin_execution&#45;&gt;load_firms_data.upstream_join_id</title>
<path fill="none" stroke="black" d="M106.22,-34C115.54,-34 124.58,-34 131.85,-34"/>
<polygon fill="black" stroke="black" points="131.89,-37.5 141.89,-34 131.89,-30.5 131.89,-37.5"/>
</g>
<!-- end_execution -->
<g id="node2" class="node">
<title>end_execution</title>
<path fill="#e8f7e4" stroke="#000000" d="M573,-52C573,-52 502,-52 502,-52 496,-52 490,-46 490,-40 490,-40 490,-28 490,-28 490,-22 496,-16 502,-16 502,-16 573,-16 573,-16 579,-16 585,-22 585,-28 585,-28 585,-40 585,-40 585,-46 579,-52 573,-52"/>
<text text-anchor="middle" x="537.5" y="-30.3" font-family="Times,serif" font-size="14.00">end_execution</text>
</g>
<!-- load_firms_data.get_firms_details -->
<g id="node5" class="node">
<title>load_firms_data.get_firms_details</title>
<path fill="#7545a1" stroke="#000000" d="M291,-52C291,-52 204,-52 204,-52 198,-52 192,-46 192,-40 192,-40 192,-28 192,-28 192,-22 198,-16 204,-16 204,-16 291,-16 291,-16 297,-16 303,-22 303,-28 303,-28 303,-40 303,-40 303,-46 297,-52 291,-52"/>
<text text-anchor="middle" x="247.5" y="-30.3" font-family="Times,serif" font-size="14.00">get_firms_details</text>
</g>
<!-- load_firms_data.upstream_join_id&#45;&gt;load_firms_data.get_firms_details -->
<g id="edge5" class="edge">
<title>load_firms_data.upstream_join_id&#45;&gt;load_firms_data.get_firms_details</title>
<path fill="none" stroke="black" d="M156.04,-34C161.73,-34 170.92,-34 181.31,-34"/>
<polygon fill="black" stroke="black" points="181.56,-37.5 191.56,-34 181.56,-30.5 181.56,-37.5"/>
</g>
<!-- load_firms_data.downstream_join_id -->
<g id="node4" class="node">
<title>load_firms_data.downstream_join_id</title>
<ellipse fill="CornflowerBlue" stroke="#000000" cx="447" cy="-34" rx="7" ry="7"/>
</g>
<!-- load_firms_data.downstream_join_id&#45;&gt;end_execution -->
<g id="edge2" class="edge">
<title>load_firms_data.downstream_join_id&#45;&gt;end_execution</title>
<path fill="none" stroke="black" d="M454.08,-34C459.88,-34 469.25,-34 479.64,-34"/>
<polygon fill="black" stroke="black" points="479.82,-37.5 489.82,-34 479.82,-30.5 479.82,-37.5"/>
</g>
<!-- load_firms_data.load_file -->
<g id="node6" class="node">
<title>load_firms_data.load_file</title>
<path fill="#7545a1" stroke="#000000" d="M392,-52C392,-52 351,-52 351,-52 345,-52 339,-46 339,-40 339,-40 339,-28 339,-28 339,-22 345,-16 351,-16 351,-16 392,-16 392,-16 398,-16 404,-22 404,-28 404,-28 404,-40 404,-40 404,-46 398,-52 392,-52"/>
<text text-anchor="middle" x="371.5" y="-30.3" font-family="Times,serif" font-size="14.00">load_file</text>
</g>
<!-- load_firms_data.get_firms_details&#45;&gt;load_firms_data.load_file -->
<g id="edge3" class="edge">
<title>load_firms_data.get_firms_details&#45;&gt;load_firms_data.load_file</title>
<path fill="none" stroke="black" d="M303.08,-34C311.64,-34 320.38,-34 328.6,-34"/>
<polygon fill="black" stroke="black" points="328.68,-37.5 338.68,-34 328.68,-30.5 328.68,-37.5"/>
</g>
<!-- load_firms_data.load_file&#45;&gt;load_firms_data.downstream_join_id -->
<g id="edge4" class="edge">
<title>load_firms_data.load_file&#45;&gt;load_firms_data.downstream_join_id</title>
<path fill="none" stroke="black" d="M404.1,-34C412.88,-34 422.06,-34 429.59,-34"/>
<polygon fill="black" stroke="black" points="429.75,-37.5 439.75,-34 429.75,-30.5 429.75,-37.5"/>
</g>
</g>
</svg>
