<?xml version="1.0" encoding="UTF-8" standalone="no"?>
<!DOCTYPE svg PUBLIC "-//W3C//DTD SVG 1.1//EN"
 "http://www.w3.org/Graphics/SVG/1.1/DTD/svg11.dtd">
<!-- Generated by graphviz version 3.0.0 (0)
 -->
<!-- Title: aws_emr_dag Pages: 1 -->
<svg width="1947pt" height="852pt"
 viewBox="0.00 0.00 1947.00 852.00" xmlns="http://www.w3.org/2000/svg" xmlns:xlink="http://www.w3.org/1999/xlink">
<g id="graph0" class="graph" transform="scale(1 1) rotate(0) translate(4 848)">
<title>aws_emr_dag</title>
<polygon fill="white" stroke="transparent" points="-4,4 -4,-848 1943,-848 1943,4 -4,4"/>
<text text-anchor="middle" x="969.5" y="-828.8" font-family="Times,serif" font-size="14.00">aws_emr_dag</text>
<g id="clust1" class="cluster">
<title>cluster_load_ghcn_data</title>
<polygon fill="#6495ed" fill-opacity="0.498039" stroke="#000000" points="134,-684 134,-813 687.5,-813 687.5,-684 134,-684"/>
<text text-anchor="middle" x="410.75" y="-797.8" font-family="Times,serif" font-size="14.00">load_ghcn_data</text>
</g>
<g id="clust2" class="cluster">
<title>cluster_load_latest_firms_data</title>
<polygon fill="#6495ed" fill-opacity="0.498039" stroke="#000000" points="134,-601 134,-676 582,-676 582,-601 134,-601"/>
<text text-anchor="middle" x="358" y="-660.8" font-family="Times,serif" font-size="14.00">load_latest_firms_data</text>
</g>
<g id="clust3" class="cluster">
<title>cluster_load_script_files</title>
<polygon fill="#6495ed" fill-opacity="0.498039" stroke="#000000" points="134,-302 134,-593 582,-593 582,-302 134,-302"/>
<text text-anchor="middle" x="358" y="-577.8" font-family="Times,serif" font-size="14.00">load_script_files</text>
</g>
<g id="clust4" class="cluster">
<title>cluster_load_shapes_data</title>
<polygon fill="#6495ed" fill-opacity="0.498039" stroke="#000000" points="134,-145 134,-294 854,-294 854,-145 134,-145"/>
<text text-anchor="middle" x="494" y="-278.8" font-family="Times,serif" font-size="14.00">load_shapes_data</text>
</g>
<g id="clust5" class="cluster">
<title>cluster_load_stations_data</title>
<polygon fill="#6495ed" fill-opacity="0.498039" stroke="#000000" points="134,-8 134,-137 687.5,-137 687.5,-8 134,-8"/>
<text text-anchor="middle" x="410.75" y="-121.8" font-family="Times,serif" font-size="14.00">load_stations_data</text>
</g>
<g id="clust6" class="cluster">
<title>cluster_run_quality_tests</title>
<polygon fill="#6495ed" fill-opacity="0.498039" stroke="#000000" points="1541,-383 1541,-512 1810,-512 1810,-383 1541,-383"/>
<text text-anchor="middle" x="1675.5" y="-496.8" font-family="Times,serif" font-size="14.00">run_quality_tests</text>
</g>
<g id="clust7" class="cluster">
<title>cluster_submit_spark_to_emr</title>
<polygon fill="#6495ed" fill-opacity="0.498039" stroke="#000000" points="874,-329 874,-566 1521,-566 1521,-329 874,-329"/>
<text text-anchor="middle" x="1197.5" y="-550.8" font-family="Times,serif" font-size="14.00">submit_spark_to_emr</text>
</g>
<!-- Stop_execution -->
<g id="node1" class="node">
<title>Stop_execution</title>
<path fill="#e8f7e4" stroke="#000000" d="M1927,-454C1927,-454 1850,-454 1850,-454 1844,-454 1838,-448 1838,-442 1838,-442 1838,-430 1838,-430 1838,-424 1844,-418 1850,-418 1850,-418 1927,-418 1927,-418 1933,-418 1939,-424 1939,-430 1939,-430 1939,-442 1939,-442 1939,-448 1933,-454 1927,-454"/>
<text text-anchor="middle" x="1888.5" y="-432.3" font-family="Times,serif" font-size="14.00">Stop_execution</text>
</g>
<!-- begin_execution -->
<g id="node2" class="node">
<title>begin_execution</title>
<path fill="#e8f7e4" stroke="#000000" d="M94,-454C94,-454 12,-454 12,-454 6,-454 0,-448 0,-442 0,-442 0,-430 0,-430 0,-424 6,-418 12,-418 12,-418 94,-418 94,-418 100,-418 106,-424 106,-430 106,-430 106,-442 106,-442 106,-448 100,-454 94,-454"/>
<text text-anchor="middle" x="53" y="-432.3" font-family="Times,serif" font-size="14.00">begin_execution</text>
</g>
<!-- load_ghcn_data.upstream_join_id -->
<g id="node3" class="node">
<title>load_ghcn_data.upstream_join_id</title>
<ellipse fill="CornflowerBlue" stroke="#000000" cx="149" cy="-704" rx="7" ry="7"/>
</g>
<!-- begin_execution&#45;&gt;load_ghcn_data.upstream_join_id -->
<g id="edge1" class="edge">
<title>begin_execution&#45;&gt;load_ghcn_data.upstream_join_id</title>
<path fill="none" stroke="black" d="M58.56,-454.25C69.18,-495.5 97.44,-598.68 134,-680 135.5,-683.34 137.35,-686.82 139.2,-690.05"/>
<polygon fill="black" stroke="black" points="136.24,-691.93 144.43,-698.65 142.22,-688.29 136.24,-691.93"/>
</g>
<!-- load_latest_firms_data.upstream_join_id -->
<g id="node9" class="node">
<title>load_latest_firms_data.upstream_join_id</title>
<ellipse fill="CornflowerBlue" stroke="#000000" cx="149" cy="-621" rx="7" ry="7"/>
</g>
<!-- begin_execution&#45;&gt;load_latest_firms_data.upstream_join_id -->
<g id="edge2" class="edge">
<title>begin_execution&#45;&gt;load_latest_firms_data.upstream_join_id</title>
<path fill="none" stroke="black" d="M62.49,-454.07C76.7,-484.07 106.44,-545.9 134,-597 135.64,-600.04 137.46,-603.26 139.23,-606.32"/>
<polygon fill="black" stroke="black" points="136.34,-608.31 144.44,-615.14 142.37,-604.75 136.34,-608.31"/>
</g>
<!-- load_script_files.upstream_join_id -->
<g id="node13" class="node">
<title>load_script_files.upstream_join_id</title>
<ellipse fill="CornflowerBlue" stroke="#000000" cx="149" cy="-436" rx="7" ry="7"/>
</g>
<!-- begin_execution&#45;&gt;load_script_files.upstream_join_id -->
<g id="edge3" class="edge">
<title>begin_execution&#45;&gt;load_script_files.upstream_join_id</title>
<path fill="none" stroke="black" d="M106.22,-436C115.54,-436 124.58,-436 131.85,-436"/>
<polygon fill="black" stroke="black" points="131.89,-439.5 141.89,-436 131.89,-432.5 131.89,-439.5"/>
</g>
<!-- load_shapes_data.upstream_join_id -->
<g id="node21" class="node">
<title>load_shapes_data.upstream_join_id</title>
<ellipse fill="CornflowerBlue" stroke="#000000" cx="149" cy="-237" rx="7" ry="7"/>
</g>
<!-- begin_execution&#45;&gt;load_shapes_data.upstream_join_id -->
<g id="edge4" class="edge">
<title>begin_execution&#45;&gt;load_shapes_data.upstream_join_id</title>
<path fill="none" stroke="black" d="M62.51,-417.99C80.77,-379.32 123.48,-288.91 140.65,-252.55"/>
<polygon fill="black" stroke="black" points="144,-253.66 145.11,-243.12 137.67,-250.67 144,-253.66"/>
</g>
<!-- load_stations_data.upstream_join_id -->
<g id="node30" class="node">
<title>load_stations_data.upstream_join_id</title>
<ellipse fill="CornflowerBlue" stroke="#000000" cx="149" cy="-93" rx="7" ry="7"/>
</g>
<!-- begin_execution&#45;&gt;load_stations_data.upstream_join_id -->
<g id="edge5" class="edge">
<title>begin_execution&#45;&gt;load_stations_data.upstream_join_id</title>
<path fill="none" stroke="black" d="M58.84,-417.67C71.12,-371.28 104.6,-245.46 134,-141 136.98,-130.43 140.43,-118.58 143.16,-109.3"/>
<polygon fill="black" stroke="black" points="146.58,-110.09 146.06,-99.51 139.87,-108.11 146.58,-110.09"/>
</g>
<!-- load_ghcn_data.check -->
<g id="node5" class="node">
<title>load_ghcn_data.check</title>
<path fill="#ffefeb" stroke="#000000" d="M262.5,-728C262.5,-728 232.5,-728 232.5,-728 226.5,-728 220.5,-722 220.5,-716 220.5,-716 220.5,-704 220.5,-704 220.5,-698 226.5,-692 232.5,-692 232.5,-692 262.5,-692 262.5,-692 268.5,-692 274.5,-698 274.5,-704 274.5,-704 274.5,-716 274.5,-716 274.5,-722 268.5,-728 262.5,-728"/>
<text text-anchor="middle" x="247.5" y="-706.3" font-family="Times,serif" font-size="14.00">check</text>
</g>
<!-- load_ghcn_data.upstream_join_id&#45;&gt;load_ghcn_data.check -->
<g id="edge12" class="edge">
<title>load_ghcn_data.upstream_join_id&#45;&gt;load_ghcn_data.check</title>
<path fill="none" stroke="black" d="M156.04,-704.38C166.79,-705.04 190.03,-706.49 210.26,-707.75"/>
<polygon fill="black" stroke="black" points="210.29,-711.25 220.48,-708.38 210.72,-704.27 210.29,-711.25"/>
</g>
<!-- load_ghcn_data.downstream_join_id -->
<g id="node4" class="node">
<title>load_ghcn_data.downstream_join_id</title>
<ellipse fill="CornflowerBlue" stroke="#000000" cx="672.5" cy="-704" rx="7" ry="7"/>
</g>
<!-- submit_spark_to_emr.upstream_join_id -->
<g id="node40" class="node">
<title>submit_spark_to_emr.upstream_join_id</title>
<ellipse fill="CornflowerBlue" stroke="#000000" cx="889" cy="-436" rx="7" ry="7"/>
</g>
<!-- load_ghcn_data.downstream_join_id&#45;&gt;submit_spark_to_emr.upstream_join_id -->
<g id="edge9" class="edge">
<title>load_ghcn_data.downstream_join_id&#45;&gt;submit_spark_to_emr.upstream_join_id</title>
<path fill="none" stroke="black" d="M679.27,-701.13C704.34,-688.33 804.74,-633.89 854,-559 875.97,-525.6 883.86,-478.19 886.6,-453.1"/>
<polygon fill="black" stroke="black" points="890.1,-453.29 887.56,-443 883.13,-452.63 890.1,-453.29"/>
</g>
<!-- load_ghcn_data.data_from_ghcn_to_s3 -->
<g id="node6" class="node">
<title>load_ghcn_data.data_from_ghcn_to_s3</title>
<path fill="#7545a1" stroke="#000000" d="M476,-728C476,-728 358,-728 358,-728 352,-728 346,-722 346,-716 346,-716 346,-704 346,-704 346,-698 352,-692 358,-692 358,-692 476,-692 476,-692 482,-692 488,-698 488,-704 488,-704 488,-716 488,-716 488,-722 482,-728 476,-728"/>
<text text-anchor="middle" x="417" y="-706.3" font-family="Times,serif" font-size="14.00">data_from_ghcn_to_s3</text>
</g>
<!-- load_ghcn_data.check&#45;&gt;load_ghcn_data.data_from_ghcn_to_s3 -->
<g id="edge6" class="edge">
<title>load_ghcn_data.check&#45;&gt;load_ghcn_data.data_from_ghcn_to_s3</title>
<path fill="none" stroke="black" d="M274.67,-710C291.27,-710 313.71,-710 335.82,-710"/>
<polygon fill="black" stroke="black" points="335.94,-713.5 345.94,-710 335.94,-706.5 335.94,-713.5"/>
</g>
<!-- load_ghcn_data.skip -->
<g id="node8" class="node">
<title>load_ghcn_data.skip</title>
<path fill="#e8f7e4" stroke="#000000" d="M432,-782C432,-782 402,-782 402,-782 396,-782 390,-776 390,-770 390,-770 390,-758 390,-758 390,-752 396,-746 402,-746 402,-746 432,-746 432,-746 438,-746 444,-752 444,-758 444,-758 444,-770 444,-770 444,-776 438,-782 432,-782"/>
<text text-anchor="middle" x="417" y="-760.3" font-family="Times,serif" font-size="14.00">skip</text>
</g>
<!-- load_ghcn_data.check&#45;&gt;load_ghcn_data.skip -->
<g id="edge7" class="edge">
<title>load_ghcn_data.check&#45;&gt;load_ghcn_data.skip</title>
<path fill="none" stroke="black" d="M274.67,-718.44C302.98,-727.56 348.31,-742.18 379.97,-752.39"/>
<polygon fill="black" stroke="black" points="379.14,-755.8 389.74,-755.53 381.29,-749.13 379.14,-755.8"/>
</g>
<!-- load_ghcn_data.join -->
<g id="node7" class="node">
<title>load_ghcn_data.join</title>
<path fill="#e8f7e4" stroke="#000000" d="M582,-728C582,-728 552,-728 552,-728 546,-728 540,-722 540,-716 540,-716 540,-704 540,-704 540,-698 546,-692 552,-692 552,-692 582,-692 582,-692 588,-692 594,-698 594,-704 594,-704 594,-716 594,-716 594,-722 588,-728 582,-728"/>
<text text-anchor="middle" x="567" y="-706.3" font-family="Times,serif" font-size="14.00">join</text>
</g>
<!-- load_ghcn_data.data_from_ghcn_to_s3&#45;&gt;load_ghcn_data.join -->
<g id="edge8" class="edge">
<title>load_ghcn_data.data_from_ghcn_to_s3&#45;&gt;load_ghcn_data.join</title>
<path fill="none" stroke="black" d="M488.1,-710C502.46,-710 517.01,-710 529.59,-710"/>
<polygon fill="black" stroke="black" points="529.65,-713.5 539.65,-710 529.65,-706.5 529.65,-713.5"/>
</g>
<!-- load_ghcn_data.join&#45;&gt;load_ghcn_data.downstream_join_id -->
<g id="edge10" class="edge">
<title>load_ghcn_data.join&#45;&gt;load_ghcn_data.downstream_join_id</title>
<path fill="none" stroke="black" d="M594.12,-708.49C613.39,-707.37 639.02,-705.88 655.39,-704.93"/>
<polygon fill="black" stroke="black" points="655.67,-708.42 665.45,-704.35 655.26,-701.44 655.67,-708.42"/>
</g>
<!-- load_ghcn_data.skip&#45;&gt;load_ghcn_data.join -->
<g id="edge11" class="edge">
<title>load_ghcn_data.skip&#45;&gt;load_ghcn_data.join</title>
<path fill="none" stroke="black" d="M444.08,-755.05C459.02,-749.87 478.1,-743.17 495,-737 506.5,-732.8 518.99,-728.1 530.24,-723.81"/>
<polygon fill="black" stroke="black" points="531.67,-727.01 539.76,-720.17 529.17,-720.47 531.67,-727.01"/>
</g>
<!-- load_latest_firms_data.get_firms_details -->
<g id="node11" class="node">
<title>load_latest_firms_data.get_firms_details</title>
<path fill="#7545a1" stroke="#000000" d="M291,-645C291,-645 204,-645 204,-645 198,-645 192,-639 192,-633 192,-633 192,-621 192,-621 192,-615 198,-609 204,-609 204,-609 291,-609 291,-609 297,-609 303,-615 303,-621 303,-621 303,-633 303,-633 303,-639 297,-645 291,-645"/>
<text text-anchor="middle" x="247.5" y="-623.3" font-family="Times,serif" font-size="14.00">get_firms_details</text>
</g>
<!-- load_latest_firms_data.upstream_join_id&#45;&gt;load_latest_firms_data.get_firms_details -->
<g id="edge16" class="edge">
<title>load_latest_firms_data.upstream_join_id&#45;&gt;load_latest_firms_data.get_firms_details</title>
<path fill="none" stroke="black" d="M156.04,-621.38C161.73,-621.73 170.92,-622.3 181.31,-622.95"/>
<polygon fill="black" stroke="black" points="181.36,-626.46 191.56,-623.58 181.8,-619.47 181.36,-626.46"/>
</g>
<!-- load_latest_firms_data.downstream_join_id -->
<g id="node10" class="node">
<title>load_latest_firms_data.downstream_join_id</title>
<ellipse fill="CornflowerBlue" stroke="#000000" cx="567" cy="-621" rx="7" ry="7"/>
</g>
<!-- load_latest_firms_data.downstream_join_id&#45;&gt;submit_spark_to_emr.upstream_join_id -->
<g id="edge13" class="edge">
<title>load_latest_firms_data.downstream_join_id&#45;&gt;submit_spark_to_emr.upstream_join_id</title>
<path fill="none" stroke="black" d="M573.55,-617.79C610.12,-596.65 816.59,-477.28 873.49,-444.39"/>
<polygon fill="black" stroke="black" points="875.39,-447.33 882.29,-439.3 871.88,-441.27 875.39,-447.33"/>
</g>
<!-- load_latest_firms_data.load_file -->
<g id="node12" class="node">
<title>load_latest_firms_data.load_file</title>
<path fill="#7545a1" stroke="#000000" d="M437.5,-645C437.5,-645 396.5,-645 396.5,-645 390.5,-645 384.5,-639 384.5,-633 384.5,-633 384.5,-621 384.5,-621 384.5,-615 390.5,-609 396.5,-609 396.5,-609 437.5,-609 437.5,-609 443.5,-609 449.5,-615 449.5,-621 449.5,-621 449.5,-633 449.5,-633 449.5,-639 443.5,-645 437.5,-645"/>
<text text-anchor="middle" x="417" y="-623.3" font-family="Times,serif" font-size="14.00">load_file</text>
</g>
<!-- load_latest_firms_data.get_firms_details&#45;&gt;load_latest_firms_data.load_file -->
<g id="edge14" class="edge">
<title>load_latest_firms_data.get_firms_details&#45;&gt;load_latest_firms_data.load_file</title>
<path fill="none" stroke="black" d="M303.35,-627C326.3,-627 352.56,-627 373.95,-627"/>
<polygon fill="black" stroke="black" points="374.03,-630.5 384.03,-627 374.03,-623.5 374.03,-630.5"/>
</g>
<!-- load_latest_firms_data.load_file&#45;&gt;load_latest_firms_data.downstream_join_id -->
<g id="edge15" class="edge">
<title>load_latest_firms_data.load_file&#45;&gt;load_latest_firms_data.downstream_join_id</title>
<path fill="none" stroke="black" d="M449.75,-625.71C480.41,-624.47 525.63,-622.64 549.63,-621.66"/>
<polygon fill="black" stroke="black" points="549.96,-625.15 559.81,-621.25 549.68,-618.16 549.96,-625.15"/>
</g>
<!-- load_script_files.start -->
<g id="node19" class="node">
<title>load_script_files.start</title>
<path fill="#e8f7e4" stroke="#000000" d="M262.5,-454C262.5,-454 232.5,-454 232.5,-454 226.5,-454 220.5,-448 220.5,-442 220.5,-442 220.5,-430 220.5,-430 220.5,-424 226.5,-418 232.5,-418 232.5,-418 262.5,-418 262.5,-418 268.5,-418 274.5,-424 274.5,-430 274.5,-430 274.5,-442 274.5,-442 274.5,-448 268.5,-454 262.5,-454"/>
<text text-anchor="middle" x="247.5" y="-432.3" font-family="Times,serif" font-size="14.00">start</text>
</g>
<!-- load_script_files.upstream_join_id&#45;&gt;load_script_files.start -->
<g id="edge28" class="edge">
<title>load_script_files.upstream_join_id&#45;&gt;load_script_files.start</title>
<path fill="none" stroke="black" d="M156.04,-436C166.79,-436 190.03,-436 210.26,-436"/>
<polygon fill="black" stroke="black" points="210.48,-439.5 220.48,-436 210.48,-432.5 210.48,-439.5"/>
</g>
<!-- load_script_files.downstream_join_id -->
<g id="node14" class="node">
<title>load_script_files.downstream_join_id</title>
<ellipse fill="CornflowerBlue" stroke="#000000" cx="567" cy="-436" rx="7" ry="7"/>
</g>
<!-- load_script_files.downstream_join_id&#45;&gt;submit_spark_to_emr.upstream_join_id -->
<g id="edge18" class="edge">
<title>load_script_files.downstream_join_id&#45;&gt;submit_spark_to_emr.upstream_join_id</title>
<path fill="none" stroke="black" d="M574.11,-436C611.78,-436 812.88,-436 871.78,-436"/>
<polygon fill="black" stroke="black" points="871.83,-439.5 881.83,-436 871.83,-432.5 871.83,-439.5"/>
</g>
<!-- load_script_files.bootstrap&#45;actions.sh -->
<g id="node15" class="node">
<title>load_script_files.bootstrap&#45;actions.sh</title>
<path fill="#7545a1" stroke="#000000" d="M467.5,-346C467.5,-346 366.5,-346 366.5,-346 360.5,-346 354.5,-340 354.5,-334 354.5,-334 354.5,-322 354.5,-322 354.5,-316 360.5,-310 366.5,-310 366.5,-310 467.5,-310 467.5,-310 473.5,-310 479.5,-316 479.5,-322 479.5,-322 479.5,-334 479.5,-334 479.5,-340 473.5,-346 467.5,-346"/>
<text text-anchor="middle" x="417" y="-324.3" font-family="Times,serif" font-size="14.00">bootstrap&#45;actions.sh</text>
</g>
<!-- load_script_files.bootstrap&#45;actions.sh&#45;&gt;load_script_files.downstream_join_id -->
<g id="edge17" class="edge">
<title>load_script_files.bootstrap&#45;actions.sh&#45;&gt;load_script_files.downstream_join_id</title>
<path fill="none" stroke="black" d="M479.13,-346.08C484.69,-348.7 490.07,-351.67 495,-355 521.93,-373.2 545.02,-404.02 557.07,-421.94"/>
<polygon fill="black" stroke="black" points="554.2,-423.94 562.59,-430.41 560.06,-420.12 554.2,-423.94"/>
</g>
<!-- load_script_files.firms_spark_etl.py -->
<g id="node16" class="node">
<title>load_script_files.firms_spark_etl.py</title>
<path fill="#7545a1" stroke="#000000" d="M464.5,-400C464.5,-400 369.5,-400 369.5,-400 363.5,-400 357.5,-394 357.5,-388 357.5,-388 357.5,-376 357.5,-376 357.5,-370 363.5,-364 369.5,-364 369.5,-364 464.5,-364 464.5,-364 470.5,-364 476.5,-370 476.5,-376 476.5,-376 476.5,-388 476.5,-388 476.5,-394 470.5,-400 464.5,-400"/>
<text text-anchor="middle" x="417" y="-378.3" font-family="Times,serif" font-size="14.00">firms_spark_etl.py</text>
</g>
<!-- load_script_files.firms_spark_etl.py&#45;&gt;load_script_files.downstream_join_id -->
<g id="edge19" class="edge">
<title>load_script_files.firms_spark_etl.py&#45;&gt;load_script_files.downstream_join_id</title>
<path fill="none" stroke="black" d="M470.25,-400.12C478.55,-403.05 487.02,-406.08 495,-409 514.16,-416 536.08,-424.4 550.44,-429.95"/>
<polygon fill="black" stroke="black" points="549.54,-433.35 560.13,-433.71 552.07,-426.83 549.54,-433.35"/>
</g>
<!-- load_script_files.ghcn_spark_etl.py -->
<g id="node17" class="node">
<title>load_script_files.ghcn_spark_etl.py</title>
<path fill="#7545a1" stroke="#000000" d="M463,-454C463,-454 371,-454 371,-454 365,-454 359,-448 359,-442 359,-442 359,-430 359,-430 359,-424 365,-418 371,-418 371,-418 463,-418 463,-418 469,-418 475,-424 475,-430 475,-430 475,-442 475,-442 475,-448 469,-454 463,-454"/>
<text text-anchor="middle" x="417" y="-432.3" font-family="Times,serif" font-size="14.00">ghcn_spark_etl.py</text>
</g>
<!-- load_script_files.ghcn_spark_etl.py&#45;&gt;load_script_files.downstream_join_id -->
<g id="edge20" class="edge">
<title>load_script_files.ghcn_spark_etl.py&#45;&gt;load_script_files.downstream_join_id</title>
<path fill="none" stroke="black" d="M475.22,-436C502.05,-436 531.98,-436 549.89,-436"/>
<polygon fill="black" stroke="black" points="549.97,-439.5 559.97,-436 549.97,-432.5 549.97,-439.5"/>
</g>
<!-- load_script_files.osm_shapes_spark_etl.py -->
<g id="node18" class="node">
<title>load_script_files.osm_shapes_spark_etl.py</title>
<path fill="#7545a1" stroke="#000000" d="M483,-508C483,-508 351,-508 351,-508 345,-508 339,-502 339,-496 339,-496 339,-484 339,-484 339,-478 345,-472 351,-472 351,-472 483,-472 483,-472 489,-472 495,-478 495,-484 495,-484 495,-496 495,-496 495,-502 489,-508 483,-508"/>
<text text-anchor="middle" x="417" y="-486.3" font-family="Times,serif" font-size="14.00">osm_shapes_spark_etl.py</text>
</g>
<!-- load_script_files.osm_shapes_spark_etl.py&#45;&gt;load_script_files.downstream_join_id -->
<g id="edge21" class="edge">
<title>load_script_files.osm_shapes_spark_etl.py&#45;&gt;load_script_files.downstream_join_id</title>
<path fill="none" stroke="black" d="M470.25,-471.88C478.55,-468.95 487.02,-465.92 495,-463 514.16,-456 536.08,-447.6 550.44,-442.05"/>
<polygon fill="black" stroke="black" points="552.07,-445.17 560.13,-438.29 549.54,-438.65 552.07,-445.17"/>
</g>
<!-- load_script_files.start&#45;&gt;load_script_files.bootstrap&#45;actions.sh -->
<g id="edge22" class="edge">
<title>load_script_files.start&#45;&gt;load_script_files.bootstrap&#45;actions.sh</title>
<path fill="none" stroke="black" d="M264.56,-417.95C281.51,-399.85 309.77,-372.27 339,-355 341.81,-353.34 344.73,-351.77 347.72,-350.27"/>
<polygon fill="black" stroke="black" points="349.3,-353.39 356.89,-346.01 346.35,-347.05 349.3,-353.39"/>
</g>
<!-- load_script_files.start&#45;&gt;load_script_files.firms_spark_etl.py -->
<g id="edge23" class="edge">
<title>load_script_files.start&#45;&gt;load_script_files.firms_spark_etl.py</title>
<path fill="none" stroke="black" d="M274.67,-427.56C294.91,-421.04 323.85,-411.71 350.27,-403.19"/>
<polygon fill="black" stroke="black" points="351.43,-406.49 359.88,-400.09 349.28,-399.83 351.43,-406.49"/>
</g>
<!-- load_script_files.start&#45;&gt;load_script_files.ghcn_spark_etl.py -->
<g id="edge24" class="edge">
<title>load_script_files.start&#45;&gt;load_script_files.ghcn_spark_etl.py</title>
<path fill="none" stroke="black" d="M274.67,-436C294.49,-436 322.65,-436 348.62,-436"/>
<polygon fill="black" stroke="black" points="348.82,-439.5 358.82,-436 348.82,-432.5 348.82,-439.5"/>
</g>
<!-- load_script_files.start&#45;&gt;load_script_files.osm_shapes_spark_etl.py -->
<g id="edge25" class="edge">
<title>load_script_files.start&#45;&gt;load_script_files.osm_shapes_spark_etl.py</title>
<path fill="none" stroke="black" d="M274.67,-444.44C294.91,-450.96 323.85,-460.29 350.27,-468.81"/>
<polygon fill="black" stroke="black" points="349.28,-472.17 359.88,-471.91 351.43,-465.51 349.28,-472.17"/>
</g>
<!-- load_script_files.stations_spark_etl.py -->
<g id="node20" class="node">
<title>load_script_files.stations_spark_etl.py</title>
<path fill="#7545a1" stroke="#000000" d="M470.5,-562C470.5,-562 363.5,-562 363.5,-562 357.5,-562 351.5,-556 351.5,-550 351.5,-550 351.5,-538 351.5,-538 351.5,-532 357.5,-526 363.5,-526 363.5,-526 470.5,-526 470.5,-526 476.5,-526 482.5,-532 482.5,-538 482.5,-538 482.5,-550 482.5,-550 482.5,-556 476.5,-562 470.5,-562"/>
<text text-anchor="middle" x="417" y="-540.3" font-family="Times,serif" font-size="14.00">stations_spark_etl.py</text>
</g>
<!-- load_script_files.start&#45;&gt;load_script_files.stations_spark_etl.py -->
<g id="edge26" class="edge">
<title>load_script_files.start&#45;&gt;load_script_files.stations_spark_etl.py</title>
<path fill="none" stroke="black" d="M264.56,-454.05C281.51,-472.15 309.77,-499.73 339,-517 341.81,-518.66 344.73,-520.23 347.72,-521.73"/>
<polygon fill="black" stroke="black" points="346.35,-524.95 356.89,-525.99 349.3,-518.61 346.35,-524.95"/>
</g>
<!-- load_script_files.stations_spark_etl.py&#45;&gt;load_script_files.downstream_join_id -->
<g id="edge27" class="edge">
<title>load_script_files.stations_spark_etl.py&#45;&gt;load_script_files.downstream_join_id</title>
<path fill="none" stroke="black" d="M479.13,-525.92C484.69,-523.3 490.07,-520.33 495,-517 521.93,-498.8 545.02,-467.98 557.07,-450.06"/>
<polygon fill="black" stroke="black" points="560.06,-451.88 562.59,-441.59 554.2,-448.06 560.06,-451.88"/>
</g>
<!-- load_shapes_data.check -->
<g id="node25" class="node">
<title>load_shapes_data.check</title>
<path fill="#ffefeb" stroke="#000000" d="M262.5,-236C262.5,-236 232.5,-236 232.5,-236 226.5,-236 220.5,-230 220.5,-224 220.5,-224 220.5,-212 220.5,-212 220.5,-206 226.5,-200 232.5,-200 232.5,-200 262.5,-200 262.5,-200 268.5,-200 274.5,-206 274.5,-212 274.5,-212 274.5,-224 274.5,-224 274.5,-230 268.5,-236 262.5,-236"/>
<text text-anchor="middle" x="247.5" y="-214.3" font-family="Times,serif" font-size="14.00">check</text>
</g>
<!-- load_shapes_data.upstream_join_id&#45;&gt;load_shapes_data.check -->
<g id="edge39" class="edge">
<title>load_shapes_data.upstream_join_id&#45;&gt;load_shapes_data.check</title>
<path fill="none" stroke="black" d="M156.04,-235.81C166.84,-233.68 190.24,-229.08 210.54,-225.08"/>
<polygon fill="black" stroke="black" points="211.35,-228.49 220.48,-223.12 210,-221.62 211.35,-228.49"/>
</g>
<!-- load_shapes_data.downstream_join_id -->
<g id="node22" class="node">
<title>load_shapes_data.downstream_join_id</title>
<ellipse fill="CornflowerBlue" stroke="#000000" cx="839" cy="-245" rx="7" ry="7"/>
</g>
<!-- load_shapes_data.downstream_join_id&#45;&gt;submit_spark_to_emr.upstream_join_id -->
<g id="edge34" class="edge">
<title>load_shapes_data.downstream_join_id&#45;&gt;submit_spark_to_emr.upstream_join_id</title>
<path fill="none" stroke="black" d="M841.71,-251.8C848.52,-278.89 873.84,-379.66 883.87,-419.57"/>
<polygon fill="black" stroke="black" points="880.53,-420.64 886.36,-429.48 887.32,-418.93 880.53,-420.64"/>
</g>
<!-- load_shapes_data.ARG_2_8 -->
<g id="node23" class="node">
<title>load_shapes_data.ARG_2_8</title>
<path fill="#7545a1" stroke="#000000" d="M591,-209C591,-209 543,-209 543,-209 537,-209 531,-203 531,-197 531,-197 531,-185 531,-185 531,-179 537,-173 543,-173 543,-173 591,-173 591,-173 597,-173 603,-179 603,-185 603,-185 603,-197 603,-197 603,-203 597,-209 591,-209"/>
<text text-anchor="middle" x="567" y="-187.3" font-family="Times,serif" font-size="14.00">ARG_2_8</text>
</g>
<!-- load_shapes_data.complete -->
<g id="node26" class="node">
<title>load_shapes_data.complete</title>
<path fill="#e8f7e4" stroke="#000000" d="M694,-253C694,-253 651,-253 651,-253 645,-253 639,-247 639,-241 639,-241 639,-229 639,-229 639,-223 645,-217 651,-217 651,-217 694,-217 694,-217 700,-217 706,-223 706,-229 706,-229 706,-241 706,-241 706,-247 700,-253 694,-253"/>
<text text-anchor="middle" x="672.5" y="-231.3" font-family="Times,serif" font-size="14.00">complete</text>
</g>
<!-- load_shapes_data.ARG_2_8&#45;&gt;load_shapes_data.complete -->
<g id="edge29" class="edge">
<title>load_shapes_data.ARG_2_8&#45;&gt;load_shapes_data.complete</title>
<path fill="none" stroke="black" d="M603.04,-205.9C611.57,-209.52 620.77,-213.43 629.58,-217.18"/>
<polygon fill="black" stroke="black" points="628.37,-220.47 638.94,-221.16 631.1,-214.02 628.37,-220.47"/>
</g>
<!-- load_shapes_data.BRA_2_8 -->
<g id="node24" class="node">
<title>load_shapes_data.BRA_2_8</title>
<path fill="#7545a1" stroke="#000000" d="M590.5,-263C590.5,-263 543.5,-263 543.5,-263 537.5,-263 531.5,-257 531.5,-251 531.5,-251 531.5,-239 531.5,-239 531.5,-233 537.5,-227 543.5,-227 543.5,-227 590.5,-227 590.5,-227 596.5,-227 602.5,-233 602.5,-239 602.5,-239 602.5,-251 602.5,-251 602.5,-257 596.5,-263 590.5,-263"/>
<text text-anchor="middle" x="567" y="-241.3" font-family="Times,serif" font-size="14.00">BRA_2_8</text>
</g>
<!-- load_shapes_data.BRA_2_8&#45;&gt;load_shapes_data.complete -->
<g id="edge30" class="edge">
<title>load_shapes_data.BRA_2_8&#45;&gt;load_shapes_data.complete</title>
<path fill="none" stroke="black" d="M602.75,-241.64C611.11,-240.83 620.13,-239.96 628.8,-239.13"/>
<polygon fill="black" stroke="black" points="629.15,-242.61 638.76,-238.16 628.47,-235.64 629.15,-242.61"/>
</g>
<!-- load_shapes_data.skip -->
<g id="node28" class="node">
<title>load_shapes_data.skip</title>
<path fill="#e8f7e4" stroke="#000000" d="M687.5,-194C687.5,-194 657.5,-194 657.5,-194 651.5,-194 645.5,-188 645.5,-182 645.5,-182 645.5,-170 645.5,-170 645.5,-164 651.5,-158 657.5,-158 657.5,-158 687.5,-158 687.5,-158 693.5,-158 699.5,-164 699.5,-170 699.5,-170 699.5,-182 699.5,-182 699.5,-188 693.5,-194 687.5,-194"/>
<text text-anchor="middle" x="672.5" y="-172.3" font-family="Times,serif" font-size="14.00">skip</text>
</g>
<!-- load_shapes_data.check&#45;&gt;load_shapes_data.skip -->
<g id="edge31" class="edge">
<title>load_shapes_data.check&#45;&gt;load_shapes_data.skip</title>
<path fill="none" stroke="black" d="M274.76,-209.03C292.68,-203.18 317.05,-195.79 339,-191 454.23,-165.86 485.5,-153.79 603,-164 613.55,-164.92 624.92,-166.62 635.3,-168.45"/>
<polygon fill="black" stroke="black" points="634.82,-171.92 645.29,-170.31 636.1,-165.04 634.82,-171.92"/>
</g>
<!-- load_shapes_data.start -->
<g id="node29" class="node">
<title>load_shapes_data.start</title>
<path fill="#e8f7e4" stroke="#000000" d="M432,-236C432,-236 402,-236 402,-236 396,-236 390,-230 390,-224 390,-224 390,-212 390,-212 390,-206 396,-200 402,-200 402,-200 432,-200 432,-200 438,-200 444,-206 444,-212 444,-212 444,-224 444,-224 444,-230 438,-236 432,-236"/>
<text text-anchor="middle" x="417" y="-214.3" font-family="Times,serif" font-size="14.00">start</text>
</g>
<!-- load_shapes_data.check&#45;&gt;load_shapes_data.start -->
<g id="edge32" class="edge">
<title>load_shapes_data.check&#45;&gt;load_shapes_data.start</title>
<path fill="none" stroke="black" d="M274.67,-218C302.86,-218 347.92,-218 379.56,-218"/>
<polygon fill="black" stroke="black" points="379.74,-221.5 389.74,-218 379.74,-214.5 379.74,-221.5"/>
</g>
<!-- load_shapes_data.join -->
<g id="node27" class="node">
<title>load_shapes_data.join</title>
<path fill="#e8f7e4" stroke="#000000" d="M784,-253C784,-253 754,-253 754,-253 748,-253 742,-247 742,-241 742,-241 742,-229 742,-229 742,-223 748,-217 754,-217 754,-217 784,-217 784,-217 790,-217 796,-223 796,-229 796,-229 796,-241 796,-241 796,-247 790,-253 784,-253"/>
<text text-anchor="middle" x="769" y="-231.3" font-family="Times,serif" font-size="14.00">join</text>
</g>
<!-- load_shapes_data.complete&#45;&gt;load_shapes_data.join -->
<g id="edge33" class="edge">
<title>load_shapes_data.complete&#45;&gt;load_shapes_data.join</title>
<path fill="none" stroke="black" d="M706.02,-235C714.37,-235 723.4,-235 731.92,-235"/>
<polygon fill="black" stroke="black" points="731.98,-238.5 741.98,-235 731.98,-231.5 731.98,-238.5"/>
</g>
<!-- load_shapes_data.join&#45;&gt;load_shapes_data.downstream_join_id -->
<g id="edge35" class="edge">
<title>load_shapes_data.join&#45;&gt;load_shapes_data.downstream_join_id</title>
<path fill="none" stroke="black" d="M796.1,-238.84C804.75,-240.11 814.13,-241.49 821.82,-242.62"/>
<polygon fill="black" stroke="black" points="821.47,-246.11 831.87,-244.1 822.48,-239.18 821.47,-246.11"/>
</g>
<!-- load_shapes_data.skip&#45;&gt;load_shapes_data.join -->
<g id="edge36" class="edge">
<title>load_shapes_data.skip&#45;&gt;load_shapes_data.join</title>
<path fill="none" stroke="black" d="M699.57,-192.28C709.92,-198.74 721.97,-206.26 733.06,-213.18"/>
<polygon fill="black" stroke="black" points="731.35,-216.24 741.68,-218.57 735.06,-210.31 731.35,-216.24"/>
</g>
<!-- load_shapes_data.start&#45;&gt;load_shapes_data.ARG_2_8 -->
<g id="edge37" class="edge">
<title>load_shapes_data.start&#45;&gt;load_shapes_data.ARG_2_8</title>
<path fill="none" stroke="black" d="M444.12,-213.24C465.34,-209.36 495.78,-203.81 520.92,-199.22"/>
<polygon fill="black" stroke="black" points="521.77,-202.63 530.98,-197.39 520.51,-195.74 521.77,-202.63"/>
</g>
<!-- load_shapes_data.start&#45;&gt;load_shapes_data.BRA_2_8 -->
<g id="edge38" class="edge">
<title>load_shapes_data.start&#45;&gt;load_shapes_data.BRA_2_8</title>
<path fill="none" stroke="black" d="M444.12,-222.76C465.42,-226.65 495.99,-232.23 521.18,-236.82"/>
<polygon fill="black" stroke="black" points="520.79,-240.31 531.25,-238.66 522.04,-233.42 520.79,-240.31"/>
</g>
<!-- load_stations_data.check -->
<g id="node32" class="node">
<title>load_stations_data.check</title>
<path fill="#ffefeb" stroke="#000000" d="M262.5,-106C262.5,-106 232.5,-106 232.5,-106 226.5,-106 220.5,-100 220.5,-94 220.5,-94 220.5,-82 220.5,-82 220.5,-76 226.5,-70 232.5,-70 232.5,-70 262.5,-70 262.5,-70 268.5,-70 274.5,-76 274.5,-82 274.5,-82 274.5,-94 274.5,-94 274.5,-100 268.5,-106 262.5,-106"/>
<text text-anchor="middle" x="247.5" y="-84.3" font-family="Times,serif" font-size="14.00">check</text>
</g>
<!-- load_stations_data.upstream_join_id&#45;&gt;load_stations_data.check -->
<g id="edge46" class="edge">
<title>load_stations_data.upstream_join_id&#45;&gt;load_stations_data.check</title>
<path fill="none" stroke="black" d="M156.04,-92.69C166.79,-92.13 190.03,-90.93 210.26,-89.88"/>
<polygon fill="black" stroke="black" points="210.68,-93.36 220.48,-89.35 210.32,-86.37 210.68,-93.36"/>
</g>
<!-- load_stations_data.downstream_join_id -->
<g id="node31" class="node">
<title>load_stations_data.downstream_join_id</title>
<ellipse fill="CornflowerBlue" stroke="#000000" cx="672.5" cy="-93" rx="7" ry="7"/>
</g>
<!-- load_stations_data.downstream_join_id&#45;&gt;submit_spark_to_emr.upstream_join_id -->
<g id="edge43" class="edge">
<title>load_stations_data.downstream_join_id&#45;&gt;submit_spark_to_emr.upstream_join_id</title>
<path fill="none" stroke="black" d="M679.71,-92.43C705.76,-90.44 806.92,-86.54 854,-141 890.2,-182.87 889.59,-362.05 888.46,-418.73"/>
<polygon fill="black" stroke="black" points="884.95,-418.8 888.22,-428.88 891.95,-418.96 884.95,-418.8"/>
</g>
<!-- load_stations_data.data_from_ncdc_to_s3 -->
<g id="node33" class="node">
<title>load_stations_data.data_from_ncdc_to_s3</title>
<path fill="#7545a1" stroke="#000000" d="M475.5,-52C475.5,-52 358.5,-52 358.5,-52 352.5,-52 346.5,-46 346.5,-40 346.5,-40 346.5,-28 346.5,-28 346.5,-22 352.5,-16 358.5,-16 358.5,-16 475.5,-16 475.5,-16 481.5,-16 487.5,-22 487.5,-28 487.5,-28 487.5,-40 487.5,-40 487.5,-46 481.5,-52 475.5,-52"/>
<text text-anchor="middle" x="417" y="-30.3" font-family="Times,serif" font-size="14.00">data_from_ncdc_to_s3</text>
</g>
<!-- load_stations_data.check&#45;&gt;load_stations_data.data_from_ncdc_to_s3 -->
<g id="edge40" class="edge">
<title>load_stations_data.check&#45;&gt;load_stations_data.data_from_ncdc_to_s3</title>
<path fill="none" stroke="black" d="M274.67,-79.56C294.91,-73.04 323.85,-63.71 350.27,-55.19"/>
<polygon fill="black" stroke="black" points="351.43,-58.49 359.88,-52.09 349.28,-51.83 351.43,-58.49"/>
</g>
<!-- load_stations_data.skip -->
<g id="node35" class="node">
<title>load_stations_data.skip</title>
<path fill="#e8f7e4" stroke="#000000" d="M432,-106C432,-106 402,-106 402,-106 396,-106 390,-100 390,-94 390,-94 390,-82 390,-82 390,-76 396,-70 402,-70 402,-70 432,-70 432,-70 438,-70 444,-76 444,-82 444,-82 444,-94 444,-94 444,-100 438,-106 432,-106"/>
<text text-anchor="middle" x="417" y="-84.3" font-family="Times,serif" font-size="14.00">skip</text>
</g>
<!-- load_stations_data.check&#45;&gt;load_stations_data.skip -->
<g id="edge41" class="edge">
<title>load_stations_data.check&#45;&gt;load_stations_data.skip</title>
<path fill="none" stroke="black" d="M274.67,-88C302.86,-88 347.92,-88 379.56,-88"/>
<polygon fill="black" stroke="black" points="379.74,-91.5 389.74,-88 379.74,-84.5 379.74,-91.5"/>
</g>
<!-- load_stations_data.join -->
<g id="node34" class="node">
<title>load_stations_data.join</title>
<path fill="#e8f7e4" stroke="#000000" d="M582,-106C582,-106 552,-106 552,-106 546,-106 540,-100 540,-94 540,-94 540,-82 540,-82 540,-76 546,-70 552,-70 552,-70 582,-70 582,-70 588,-70 594,-76 594,-82 594,-82 594,-94 594,-94 594,-100 588,-106 582,-106"/>
<text text-anchor="middle" x="567" y="-84.3" font-family="Times,serif" font-size="14.00">join</text>
</g>
<!-- load_stations_data.data_from_ncdc_to_s3&#45;&gt;load_stations_data.join -->
<g id="edge42" class="edge">
<title>load_stations_data.data_from_ncdc_to_s3&#45;&gt;load_stations_data.join</title>
<path fill="none" stroke="black" d="M470.25,-52.12C478.55,-55.05 487.02,-58.08 495,-61 506.5,-65.2 518.99,-69.9 530.24,-74.19"/>
<polygon fill="black" stroke="black" points="529.17,-77.53 539.76,-77.83 531.67,-70.99 529.17,-77.53"/>
</g>
<!-- load_stations_data.join&#45;&gt;load_stations_data.downstream_join_id -->
<g id="edge44" class="edge">
<title>load_stations_data.join&#45;&gt;load_stations_data.downstream_join_id</title>
<path fill="none" stroke="black" d="M594.12,-89.26C613.39,-90.19 639.02,-91.43 655.39,-92.22"/>
<polygon fill="black" stroke="black" points="655.29,-95.72 665.45,-92.71 655.63,-88.73 655.29,-95.72"/>
</g>
<!-- load_stations_data.skip&#45;&gt;load_stations_data.join -->
<g id="edge45" class="edge">
<title>load_stations_data.skip&#45;&gt;load_stations_data.join</title>
<path fill="none" stroke="black" d="M444.12,-88C467.85,-88 503.11,-88 529.6,-88"/>
<polygon fill="black" stroke="black" points="529.64,-91.5 539.64,-88 529.64,-84.5 529.64,-91.5"/>
</g>
<!-- run_quality_tests.upstream_join_id -->
<g id="node36" class="node">
<title>run_quality_tests.upstream_join_id</title>
<ellipse fill="CornflowerBlue" stroke="#000000" cx="1556" cy="-436" rx="7" ry="7"/>
</g>
<!-- run_quality_tests.check_recent_firms_data -->
<g id="node38" class="node">
<title>run_quality_tests.check_recent_firms_data</title>
<path fill="#89da59" stroke="#000000" d="M1740,-427C1740,-427 1611,-427 1611,-427 1605,-427 1599,-421 1599,-415 1599,-415 1599,-403 1599,-403 1599,-397 1605,-391 1611,-391 1611,-391 1740,-391 1740,-391 1746,-391 1752,-397 1752,-403 1752,-403 1752,-415 1752,-415 1752,-421 1746,-427 1740,-427"/>
<text text-anchor="middle" x="1675.5" y="-405.3" font-family="Times,serif" font-size="14.00">check_recent_firms_data</text>
</g>
<!-- run_quality_tests.upstream_join_id&#45;&gt;run_quality_tests.check_recent_firms_data -->
<g id="edge50" class="edge">
<title>run_quality_tests.upstream_join_id&#45;&gt;run_quality_tests.check_recent_firms_data</title>
<path fill="none" stroke="black" d="M1562.99,-434.62C1568.7,-433.31 1578.04,-431.16 1588.95,-428.66"/>
<polygon fill="black" stroke="black" points="1589.93,-432.03 1598.89,-426.37 1588.36,-425.2 1589.93,-432.03"/>
</g>
<!-- run_quality_tests.check_recent_ghcn_data -->
<g id="node39" class="node">
<title>run_quality_tests.check_recent_ghcn_data</title>
<path fill="#89da59" stroke="#000000" d="M1738.5,-481C1738.5,-481 1612.5,-481 1612.5,-481 1606.5,-481 1600.5,-475 1600.5,-469 1600.5,-469 1600.5,-457 1600.5,-457 1600.5,-451 1606.5,-445 1612.5,-445 1612.5,-445 1738.5,-445 1738.5,-445 1744.5,-445 1750.5,-451 1750.5,-457 1750.5,-457 1750.5,-469 1750.5,-469 1750.5,-475 1744.5,-481 1738.5,-481"/>
<text text-anchor="middle" x="1675.5" y="-459.3" font-family="Times,serif" font-size="14.00">check_recent_ghcn_data</text>
</g>
<!-- run_quality_tests.upstream_join_id&#45;&gt;run_quality_tests.check_recent_ghcn_data -->
<g id="edge51" class="edge">
<title>run_quality_tests.upstream_join_id&#45;&gt;run_quality_tests.check_recent_ghcn_data</title>
<path fill="none" stroke="black" d="M1562.99,-437.38C1568.94,-438.74 1578.83,-441.02 1590.34,-443.66"/>
<polygon fill="black" stroke="black" points="1589.79,-447.13 1600.32,-445.96 1591.36,-440.3 1589.79,-447.13"/>
</g>
<!-- run_quality_tests.downstream_join_id -->
<g id="node37" class="node">
<title>run_quality_tests.downstream_join_id</title>
<ellipse fill="CornflowerBlue" stroke="#000000" cx="1795" cy="-436" rx="7" ry="7"/>
</g>
<!-- run_quality_tests.downstream_join_id&#45;&gt;Stop_execution -->
<g id="edge49" class="edge">
<title>run_quality_tests.downstream_join_id&#45;&gt;Stop_execution</title>
<path fill="none" stroke="black" d="M1802,-436C1807.73,-436 1816.99,-436 1827.36,-436"/>
<polygon fill="black" stroke="black" points="1827.55,-439.5 1837.55,-436 1827.55,-432.5 1827.55,-439.5"/>
</g>
<!-- run_quality_tests.check_recent_firms_data&#45;&gt;run_quality_tests.downstream_join_id -->
<g id="edge47" class="edge">
<title>run_quality_tests.check_recent_firms_data&#45;&gt;run_quality_tests.downstream_join_id</title>
<path fill="none" stroke="black" d="M1752.24,-426.4C1761.92,-428.63 1770.92,-430.7 1778.07,-432.34"/>
<polygon fill="black" stroke="black" points="1777.35,-435.76 1787.88,-434.59 1778.92,-428.94 1777.35,-435.76"/>
</g>
<!-- run_quality_tests.check_recent_ghcn_data&#45;&gt;run_quality_tests.downstream_join_id -->
<g id="edge48" class="edge">
<title>run_quality_tests.check_recent_ghcn_data&#45;&gt;run_quality_tests.downstream_join_id</title>
<path fill="none" stroke="black" d="M1750.58,-445.98C1760.81,-443.63 1770.37,-441.43 1777.9,-439.7"/>
<polygon fill="black" stroke="black" points="1778.91,-443.06 1787.87,-437.41 1777.34,-436.24 1778.91,-443.06"/>
</g>
<!-- submit_spark_to_emr.create_cluster -->
<g id="node43" class="node">
<title>submit_spark_to_emr.create_cluster</title>
<path fill="#f9c915" stroke="#000000" d="M1012,-454C1012,-454 944,-454 944,-454 938,-454 932,-448 932,-442 932,-442 932,-430 932,-430 932,-424 938,-418 944,-418 944,-418 1012,-418 1012,-418 1018,-418 1024,-424 1024,-430 1024,-430 1024,-442 1024,-442 1024,-448 1018,-454 1012,-454"/>
<text text-anchor="middle" x="978" y="-432.3" font-family="Times,serif" font-size="14.00">create_cluster</text>
</g>
<!-- submit_spark_to_emr.upstream_join_id&#45;&gt;submit_spark_to_emr.create_cluster -->
<g id="edge59" class="edge">
<title>submit_spark_to_emr.upstream_join_id&#45;&gt;submit_spark_to_emr.create_cluster</title>
<path fill="none" stroke="black" d="M896.26,-436C902.1,-436 911.46,-436 921.76,-436"/>
<polygon fill="black" stroke="black" points="921.85,-439.5 931.85,-436 921.85,-432.5 921.85,-439.5"/>
</g>
<!-- submit_spark_to_emr.downstream_join_id -->
<g id="node41" class="node">
<title>submit_spark_to_emr.downstream_join_id</title>
<ellipse fill="CornflowerBlue" stroke="#000000" cx="1506" cy="-436" rx="7" ry="7"/>
</g>
<!-- submit_spark_to_emr.downstream_join_id&#45;&gt;run_quality_tests.upstream_join_id -->
<g id="edge57" class="edge">
<title>submit_spark_to_emr.downstream_join_id&#45;&gt;run_quality_tests.upstream_join_id</title>
<path fill="none" stroke="black" d="M1513.28,-436C1519.71,-436 1529.98,-436 1538.72,-436"/>
<polygon fill="black" stroke="black" points="1538.88,-439.5 1548.88,-436 1538.88,-432.5 1538.88,-439.5"/>
</g>
<!-- submit_spark_to_emr.add_steps -->
<g id="node42" class="node">
<title>submit_spark_to_emr.add_steps</title>
<path fill="#f9c915" stroke="#000000" d="M1118,-454C1118,-454 1072,-454 1072,-454 1066,-454 1060,-448 1060,-442 1060,-442 1060,-430 1060,-430 1060,-424 1066,-418 1072,-418 1072,-418 1118,-418 1118,-418 1124,-418 1130,-424 1130,-430 1130,-430 1130,-442 1130,-442 1130,-448 1124,-454 1118,-454"/>
<text text-anchor="middle" x="1095" y="-432.3" font-family="Times,serif" font-size="14.00">add_steps</text>
</g>
<!-- submit_spark_to_emr.watch_firms_step -->
<g id="node45" class="node">
<title>submit_spark_to_emr.watch_firms_step</title>
<path fill="#66c3ff" stroke="#000000" d="M1285.5,-373C1285.5,-373 1196.5,-373 1196.5,-373 1190.5,-373 1184.5,-367 1184.5,-361 1184.5,-361 1184.5,-349 1184.5,-349 1184.5,-343 1190.5,-337 1196.5,-337 1196.5,-337 1285.5,-337 1285.5,-337 1291.5,-337 1297.5,-343 1297.5,-349 1297.5,-349 1297.5,-361 1297.5,-361 1297.5,-367 1291.5,-373 1285.5,-373"/>
<text text-anchor="middle" x="1241" y="-351.3" font-family="Times,serif" font-size="14.00">watch_firms_step</text>
</g>
<!-- submit_spark_to_emr.add_steps&#45;&gt;submit_spark_to_emr.watch_firms_step -->
<g id="edge52" class="edge">
<title>submit_spark_to_emr.add_steps&#45;&gt;submit_spark_to_emr.watch_firms_step</title>
<path fill="none" stroke="black" d="M1115.97,-417.91C1129.38,-406.47 1147.85,-392 1166,-382 1169.03,-380.33 1172.18,-378.73 1175.4,-377.2"/>
<polygon fill="black" stroke="black" points="1176.92,-380.35 1184.61,-373.07 1174.05,-373.97 1176.92,-380.35"/>
</g>
<!-- submit_spark_to_emr.watch_ghcn_step -->
<g id="node46" class="node">
<title>submit_spark_to_emr.watch_ghcn_step</title>
<path fill="#66c3ff" stroke="#000000" d="M1284,-427C1284,-427 1198,-427 1198,-427 1192,-427 1186,-421 1186,-415 1186,-415 1186,-403 1186,-403 1186,-397 1192,-391 1198,-391 1198,-391 1284,-391 1284,-391 1290,-391 1296,-397 1296,-403 1296,-403 1296,-415 1296,-415 1296,-421 1290,-427 1284,-427"/>
<text text-anchor="middle" x="1241" y="-405.3" font-family="Times,serif" font-size="14.00">watch_ghcn_step</text>
</g>
<!-- submit_spark_to_emr.add_steps&#45;&gt;submit_spark_to_emr.watch_ghcn_step -->
<g id="edge53" class="edge">
<title>submit_spark_to_emr.add_steps&#45;&gt;submit_spark_to_emr.watch_ghcn_step</title>
<path fill="none" stroke="black" d="M1130.13,-429.6C1143.77,-427.04 1159.95,-424.01 1175.65,-421.07"/>
<polygon fill="black" stroke="black" points="1176.67,-424.44 1185.85,-419.15 1175.38,-417.56 1176.67,-424.44"/>
</g>
<!-- submit_spark_to_emr.watch_oms_shapes_step -->
<g id="node47" class="node">
<title>submit_spark_to_emr.watch_oms_shapes_step</title>
<path fill="#66c3ff" stroke="#000000" d="M1304,-481C1304,-481 1178,-481 1178,-481 1172,-481 1166,-475 1166,-469 1166,-469 1166,-457 1166,-457 1166,-451 1172,-445 1178,-445 1178,-445 1304,-445 1304,-445 1310,-445 1316,-451 1316,-457 1316,-457 1316,-469 1316,-469 1316,-475 1310,-481 1304,-481"/>
<text text-anchor="middle" x="1241" y="-459.3" font-family="Times,serif" font-size="14.00">watch_oms_shapes_step</text>
</g>
<!-- submit_spark_to_emr.add_steps&#45;&gt;submit_spark_to_emr.watch_oms_shapes_step -->
<g id="edge54" class="edge">
<title>submit_spark_to_emr.add_steps&#45;&gt;submit_spark_to_emr.watch_oms_shapes_step</title>
<path fill="none" stroke="black" d="M1130.13,-442.4C1138.07,-443.89 1146.87,-445.54 1155.93,-447.24"/>
<polygon fill="black" stroke="black" points="1155.36,-450.69 1165.83,-449.09 1156.65,-443.81 1155.36,-450.69"/>
</g>
<!-- submit_spark_to_emr.watch_stations_step -->
<g id="node48" class="node">
<title>submit_spark_to_emr.watch_stations_step</title>
<path fill="#66c3ff" stroke="#000000" d="M1291.5,-535C1291.5,-535 1190.5,-535 1190.5,-535 1184.5,-535 1178.5,-529 1178.5,-523 1178.5,-523 1178.5,-511 1178.5,-511 1178.5,-505 1184.5,-499 1190.5,-499 1190.5,-499 1291.5,-499 1291.5,-499 1297.5,-499 1303.5,-505 1303.5,-511 1303.5,-511 1303.5,-523 1303.5,-523 1303.5,-529 1297.5,-535 1291.5,-535"/>
<text text-anchor="middle" x="1241" y="-513.3" font-family="Times,serif" font-size="14.00">watch_stations_step</text>
</g>
<!-- submit_spark_to_emr.add_steps&#45;&gt;submit_spark_to_emr.watch_stations_step -->
<g id="edge55" class="edge">
<title>submit_spark_to_emr.add_steps&#45;&gt;submit_spark_to_emr.watch_stations_step</title>
<path fill="none" stroke="black" d="M1115.97,-454.09C1129.38,-465.53 1147.85,-480 1166,-490 1169.03,-491.67 1172.18,-493.27 1175.4,-494.8"/>
<polygon fill="black" stroke="black" points="1174.05,-498.03 1184.61,-498.93 1176.92,-491.65 1174.05,-498.03"/>
</g>
<!-- submit_spark_to_emr.create_cluster&#45;&gt;submit_spark_to_emr.add_steps -->
<g id="edge56" class="edge">
<title>submit_spark_to_emr.create_cluster&#45;&gt;submit_spark_to_emr.add_steps</title>
<path fill="none" stroke="black" d="M1024.12,-436C1032.44,-436 1041.12,-436 1049.42,-436"/>
<polygon fill="black" stroke="black" points="1049.68,-439.5 1059.68,-436 1049.68,-432.5 1049.68,-439.5"/>
</g>
<!-- submit_spark_to_emr.terminate_cluster -->
<g id="node44" class="node">
<title>submit_spark_to_emr.terminate_cluster</title>
<path fill="#f9c915" stroke="#000000" d="M1451,-454C1451,-454 1364,-454 1364,-454 1358,-454 1352,-448 1352,-442 1352,-442 1352,-430 1352,-430 1352,-424 1358,-418 1364,-418 1364,-418 1451,-418 1451,-418 1457,-418 1463,-424 1463,-430 1463,-430 1463,-442 1463,-442 1463,-448 1457,-454 1451,-454"/>
<text text-anchor="middle" x="1407.5" y="-432.3" font-family="Times,serif" font-size="14.00">terminate_cluster</text>
</g>
<!-- submit_spark_to_emr.terminate_cluster&#45;&gt;submit_spark_to_emr.downstream_join_id -->
<g id="edge58" class="edge">
<title>submit_spark_to_emr.terminate_cluster&#45;&gt;submit_spark_to_emr.downstream_join_id</title>
<path fill="none" stroke="black" d="M1463.23,-436C1472.61,-436 1481.66,-436 1488.92,-436"/>
<polygon fill="black" stroke="black" points="1488.92,-439.5 1498.92,-436 1488.92,-432.5 1488.92,-439.5"/>
</g>
<!-- submit_spark_to_emr.watch_firms_step&#45;&gt;submit_spark_to_emr.terminate_cluster -->
<g id="edge60" class="edge">
<title>submit_spark_to_emr.watch_firms_step&#45;&gt;submit_spark_to_emr.terminate_cluster</title>
<path fill="none" stroke="black" d="M1295.45,-373.14C1302.45,-375.91 1309.45,-378.89 1316,-382 1334.54,-390.82 1354.22,-402.28 1370.47,-412.38"/>
<polygon fill="black" stroke="black" points="1368.79,-415.46 1379.12,-417.82 1372.52,-409.53 1368.79,-415.46"/>
</g>
<!-- submit_spark_to_emr.watch_ghcn_step&#45;&gt;submit_spark_to_emr.terminate_cluster -->
<g id="edge61" class="edge">
<title>submit_spark_to_emr.watch_ghcn_step&#45;&gt;submit_spark_to_emr.terminate_cluster</title>
<path fill="none" stroke="black" d="M1296.32,-417.92C1310.84,-420.3 1326.68,-422.9 1341.71,-425.37"/>
<polygon fill="black" stroke="black" points="1341.52,-428.88 1351.96,-427.05 1342.66,-421.97 1341.52,-428.88"/>
</g>
<!-- submit_spark_to_emr.watch_oms_shapes_step&#45;&gt;submit_spark_to_emr.terminate_cluster -->
<g id="edge62" class="edge">
<title>submit_spark_to_emr.watch_oms_shapes_step&#45;&gt;submit_spark_to_emr.terminate_cluster</title>
<path fill="none" stroke="black" d="M1316.07,-450.84C1324.56,-449.45 1333.16,-448.04 1341.52,-446.67"/>
<polygon fill="black" stroke="black" points="1342.26,-450.09 1351.56,-445.02 1341.13,-443.18 1342.26,-450.09"/>
</g>
<!-- submit_spark_to_emr.watch_stations_step&#45;&gt;submit_spark_to_emr.terminate_cluster -->
<g id="edge63" class="edge">
<title>submit_spark_to_emr.watch_stations_step&#45;&gt;submit_spark_to_emr.terminate_cluster</title>
<path fill="none" stroke="black" d="M1295.45,-498.86C1302.45,-496.09 1309.45,-493.11 1316,-490 1334.54,-481.18 1354.22,-469.72 1370.47,-459.62"/>
<polygon fill="black" stroke="black" points="1372.52,-462.47 1379.12,-454.18 1368.79,-456.54 1372.52,-462.47"/>
</g>
</g>
</svg>
